<svg xmlns="http://www.w3.org/2000/svg" width="600" height="200" viewBox="0 0 600 200" role="img" aria-labelledby="titleDesc">
  <title id="titleDesc">Логотип Расписания</title>
  <defs>
    <linearGradient id="g1" x1="0" x2="1" y1="0" y2="1">
      <stop offset="0" stop-color="#2b7cff"/>
      <stop offset="1" stop-color="#2bc4a7"/>
    </linearGradient>
    <filter id="shadow" x="-50%" y="-50%" width="200%" height="200%">
      <feDropShadow dx="0" dy="6" stdDeviation="8" flood-color="#000" flood-opacity="0.12"/>
    </filter>
  </defs>
  <g transform="translate(230, 40)" filter="url(#shadow)">
    <rect x="0" y="0" rx="12" ry="12" width="140" height="120" fill="white" stroke="url(#g1)" stroke-width="4"/>
    <rect x="0" y="0" width="140" height="28" rx="12" ry="12" fill="url(#g1)"/>
    <rect x="16" y="-6" width="12" height="12" rx="3" fill="#ffffff" opacity="0.9"/>
    <rect x="112" y="-6" width="12" height="12" rx="3" fill="#ffffff" opacity="0.9"/>
    <g transform="translate(10,40)" fill="#2b2b2b" opacity="0.9">
      <rect x="0" y="0" width="34" height="26" rx="4" fill="#f6f8fb"/>
      <rect x="40" y="0" width="34" height="26" rx="4" fill="#f6f8fb"/>
      <rect x="80" y="0" width="34" height="26" rx="4" fill="#f6f8fb"/>
      <rect x="0" y="34" width="34" height="26" rx="4" fill="#f6f8fb"/>
      <rect x="40" y="34" width="34" height="26" rx="4" fill="#eaf9f4"/>
      <rect x="80" y="34" width="34" height="26" rx="4" fill="#f6f8fb"/>
    </g>
    <path d="M110 70 L140 100 L186 50" stroke="#2bc4a7" stroke-width="9" stroke-linecap="round" stroke-linejoin="round" fill="none" transform="translate(-40,10)"/>
  </g>
</svg>